<?xml version="1.0" encoding="utf-8"?>
<!-- Generator: Adobe Illustrator 17.0.0, SVG Export Plug-In . SVG Version: 6.00 Build 0)  -->
<!DOCTYPE svg PUBLIC "-//W3C//DTD SVG 1.1//EN" "http://www.w3.org/Graphics/SVG/1.1/DTD/svg11.dtd">
<svg version="1.1" id="Home" xmlns="http://www.w3.org/2000/svg" xmlns:xlink="http://www.w3.org/1999/xlink" x="0px" y="0px"
	 width="20px" height="21.696px" viewBox="0 0 20 21.696" enable-background="new 0 0 20 21.696" xml:space="preserve">
<path fill="#020202" d="M19.618,7.824L10.56,0.205c-0.326-0.274-0.801-0.274-1.127,0L0.312,7.878
	C0.03,8.115-0.073,8.503,0.053,8.848c0.126,0.346,0.455,0.576,0.823,0.576h1.331v10.171c0,1.16,0.941,2.101,2.101,2.101h2.976
	v-5.952c0-0.386,0.313-0.7,0.7-0.7h4.026c0.387,0,0.7,0.314,0.7,0.7v5.952h2.977c1.16,0,2.101-0.94,2.101-2.101V9.424h1.33
	c0.003,0,0.006,0,0.008,0c0.483,0,0.875-0.392,0.875-0.875C20.001,8.247,19.849,7.981,19.618,7.824z"/>
</svg>
