<?xml version="1.0" encoding="utf-8"?>
<!-- Generator: Adobe Illustrator 17.0.0, SVG Export Plug-In . SVG Version: 6.00 Build 0)  -->
<!DOCTYPE svg PUBLIC "-//W3C//DTD SVG 1.1//EN" "http://www.w3.org/Graphics/SVG/1.1/DTD/svg11.dtd">
<svg version="1.1" id="Layer_1" xmlns="http://www.w3.org/2000/svg" xmlns:xlink="http://www.w3.org/1999/xlink" x="0px" y="0px"
	 width="20px" height="17.209px" viewBox="0 0 20 17.209" enable-background="new 0 0 20 17.209" xml:space="preserve">
<path fill="#d6d6d6" d="M10.154,0.002C4.632-0.107,0.086,3.296,0.001,7.602C-0.028,9.1,0.485,10.509,1.4,11.715l0,0
	c1.573,2.021-0.144,5.494-0.144,5.494l5.068-2.183c1.092,0.345,2.279,0.546,3.522,0.57c5.522,0.108,10.068-3.294,10.153-7.6
	C20.084,3.69,15.676,0.111,10.154,0.002 M5.725,9.038c-0.68,0-1.232-0.551-1.232-1.231s0.552-1.232,1.232-1.232
	s1.232,0.552,1.232,1.232S6.406,9.038,5.725,9.038 M9.831,9.038c-0.681,0-1.232-0.551-1.232-1.231S9.15,6.575,9.831,6.575
	s1.231,0.552,1.231,1.232S10.512,9.038,9.831,9.038 M13.937,9.038c-0.681,0-1.231-0.551-1.231-1.231s0.551-1.232,1.231-1.232
	s1.231,0.552,1.231,1.232S14.617,9.038,13.937,9.038"/>
</svg>
