<?xml version="1.0" encoding="utf-8"?>
<!-- Generator: Adobe Illustrator 17.0.0, SVG Export Plug-In . SVG Version: 6.00 Build 0)  -->
<!DOCTYPE svg PUBLIC "-//W3C//DTD SVG 1.1//EN" "http://www.w3.org/Graphics/SVG/1.1/DTD/svg11.dtd">
<svg version="1.1" id="Layer_1" xmlns="http://www.w3.org/2000/svg" xmlns:xlink="http://www.w3.org/1999/xlink" x="0px" y="0px"
	 width="20px" height="20px" viewBox="0 0 20 20" enable-background="new 0 0 20 20" xml:space="preserve">
<path d="M18.394,6.313c-0.549-0.909-1.227-1.798-2.057-2.622c-0.838-0.833-1.743-1.516-2.669-2.064L15.294,0
	c0,0,2.354,0,3.529,1.176C20,2.353,20,4.706,20,4.706L18.394,6.313z M4.706,20H0v-4.706l0.564-0.565
	c0.957,0.454,1.907,1.09,2.763,1.944c0.856,0.857,1.492,1.806,1.943,2.762L4.706,20z M17.036,7.67L6.628,18.077
	c-0.549-0.908-1.227-1.8-2.056-2.623c-0.838-0.834-1.744-1.516-2.67-2.063L12.33,2.965c0.956,0.45,1.907,1.087,2.762,1.942
	C15.949,5.764,16.586,6.714,17.036,7.67z"/>
</svg>
