<?xml version="1.0" encoding="utf-8"?>
<!-- Generator: Adobe Illustrator 17.0.0, SVG Export Plug-In . SVG Version: 6.00 Build 0)  -->
<!DOCTYPE svg PUBLIC "-//W3C//DTD SVG 1.1//EN" "http://www.w3.org/Graphics/SVG/1.1/DTD/svg11.dtd">
<svg version="1.1" id="Mail" xmlns="http://www.w3.org/2000/svg" xmlns:xlink="http://www.w3.org/1999/xlink" x="0px" y="0px"
	 width="15px" height="13px" viewBox="0 0 15 13" enable-background="new 0 0 15 13" xml:space="preserve">
<g>
	<path fill="#28bbf0" d="M7.502,5.311l6.37-5.287c-0.069-0.015-0.14-0.025-0.211-0.025H1.343c-0.072,0-0.143,0.01-0.212,0.025L7.502,5.311z"/>
	<path fill="#28bbf0" d="M7.902,7.356c-0.009,0.008-0.019,0.012-0.027,0.02c-0.009,0.006-0.019,0.012-0.028,0.02
		C7.797,7.43,7.745,7.458,7.692,7.475C7.687,7.478,7.681,7.478,7.676,7.481C7.618,7.498,7.56,7.509,7.501,7.509l0,0H7.5
		c-0.059,0-0.117-0.012-0.175-0.028C7.32,7.478,7.314,7.478,7.308,7.475C7.255,7.457,7.204,7.43,7.154,7.396
		c-0.01-0.008-0.019-0.014-0.028-0.02c-0.009-0.008-0.018-0.012-0.027-0.02L0.021,1.48C0.008,1.58,0,1.681,0,1.786v9.429
		c0,0.985,0.601,1.785,1.341,1.785h12.318c0.74,0,1.341-0.8,1.341-1.785V1.786c0-0.104-0.008-0.206-0.021-0.306L7.902,7.356z"/>
</g>
</svg>
