<?xml version="1.0" encoding="utf-8"?>
<!-- Generator: Adobe Illustrator 17.0.0, SVG Export Plug-In . SVG Version: 6.00 Build 0)  -->
<!DOCTYPE svg PUBLIC "-//W3C//DTD SVG 1.1//EN" "http://www.w3.org/Graphics/SVG/1.1/DTD/svg11.dtd">
<svg version="1.1" id="Safety" xmlns="http://www.w3.org/2000/svg" xmlns:xlink="http://www.w3.org/1999/xlink" x="0px" y="0px"
	 width="15px" height="17px" viewBox="0 0 15 17" enable-background="new 0 0 15 17" xml:space="preserve">
<path d="M14.039,7.374c0.068-0.361,0.107-0.732,0.107-1.112C14.146,2.81,11.165,0,7.5,0S0.854,2.809,0.854,6.262
	c0,0.38,0.038,0.751,0.107,1.112C0.384,7.711,0,8.3,0,8.973v6.129C0,16.15,0.929,17,2.075,17h10.85c1.146,0,2.074-0.85,2.074-1.897
	H15V8.973C15,8.3,14.617,7.711,14.039,7.374z M8.416,12.726v1.332c0,0.463-0.41,0.838-0.916,0.838s-0.916-0.375-0.916-0.838v-1.333
	c-0.587-0.297-0.986-0.867-0.986-1.524c0-0.961,0.851-1.74,1.902-1.74s1.902,0.779,1.902,1.74
	C9.402,11.858,9.004,12.429,8.416,12.726z M11.617,7.076H3.383C3.326,6.813,3.297,6.54,3.297,6.262c0-2.22,1.885-4.027,4.204-4.027
	s4.204,1.806,4.204,4.027C11.704,6.54,11.674,6.813,11.617,7.076z"/>
</svg>
